<?xml version="1.0" encoding="utf-8"?>
<!-- Generator: Adobe Illustrator 26.0.2, SVG Export Plug-In . SVG Version: 6.00 Build 0)  -->
<svg version="1.1" id="Layer_1" xmlns="http://www.w3.org/2000/svg" xmlns:xlink="http://www.w3.org/1999/xlink" x="0px" y="0px"
	 viewBox="0 0 350 350" style="enable-background:new 0 0 350 350;" xml:space="preserve">
<style type="text/css">
	.st0{fill:#7367F0;}
</style>
<path class="st0" d="M160.6,126.1l59.5-59.5c6.2-6.2,16.4-6.2,22.6,0l97.1,97.1c6.2,6.2,6.2,16.4,0,22.6l-59.5,59.5
	c-6.2,6.2-16.4,6.2-22.6,0l-97.1-97.1C154.4,142.5,154.4,132.4,160.6,126.1z"/>
<path class="st0" d="M104.2,69.7l59.5-59.5c6.2-6.2,16.4-6.2,22.6,0l22.1,22.1c6.2,6.2,6.2,16.4,0,22.6l-59.5,59.5
	c-6.2,6.2-16.4,6.2-22.6,0l-22.1-22.1C97.9,86,97.9,75.9,104.2,69.7z"/>
<path class="st0" d="M108.5,262.1l59.5-59.5c6.2-6.2,6.2-16.4,0-22.6l-75.7-75.7c-6.2-6.2-16.4-6.2-22.6,0l-59.5,59.5
	c-6.2,6.2-6.2,16.4,0,22.6l75.7,75.7C92.1,268.3,102.3,268.3,108.5,262.1z"/>
<path class="st0" d="M186.3,339.9l59.5-59.5c6.2-6.2,6.2-16.4,0-22.6l-43.4-43.4c-6.2-6.2-16.4-6.2-22.6,0l-59.5,59.5
	c-6.2,6.2-6.2,16.4,0,22.6l43.4,43.4C169.9,346.1,180.1,346.1,186.3,339.9z"/>
</svg>
