<?xml version="1.0" encoding="utf-8"?>
<!-- Generator: Adobe Illustrator 26.0.2, SVG Export Plug-In . SVG Version: 6.00 Build 0)  -->
<svg version="1.1" id="Layer_1" xmlns="http://www.w3.org/2000/svg" xmlns:xlink="http://www.w3.org/1999/xlink" x="0px" y="0px"
	 viewBox="0 0 947.7 350" style="enable-background:new 0 0 947.7 350;" xml:space="preserve">
<style type="text/css">
	.st0{fill:#7367F0;}
	.st1{opacity:0.9;}
	.st2{fill:#4B465C;}
</style>
<g>
	<path class="st0" d="M753.4,126.1L813,66.6c6.2-6.2,16.4-6.2,22.6,0l97.1,97.1c6.2,6.2,6.2,16.4,0,22.6l-59.5,59.5
		c-6.2,6.2-16.4,6.2-22.6,0l-97.1-97.1C747.2,142.5,747.2,132.4,753.4,126.1z"/>
	<path class="st0" d="M697,69.7l59.5-59.5c6.2-6.2,16.4-6.2,22.6,0l22.1,22.1c6.2,6.2,6.2,16.4,0,22.6l-59.5,59.5
		c-6.2,6.2-16.4,6.2-22.6,0L697,92.3C690.7,86,690.7,75.9,697,69.7z"/>
	<path class="st0" d="M701.3,262.1l59.5-59.5c6.2-6.2,6.2-16.4,0-22.6l-75.7-75.7c-6.2-6.2-16.4-6.2-22.6,0L603,163.7
		c-6.2,6.2-6.2,16.4,0,22.6l75.7,75.7C684.9,268.3,695.1,268.3,701.3,262.1z"/>
	<path class="st0" d="M779.1,339.9l59.5-59.5c6.2-6.2,6.2-16.4,0-22.6l-43.4-43.4c-6.2-6.2-16.4-6.2-22.6,0l-59.5,59.5
		c-6.2,6.2-6.2,16.4,0,22.6l43.4,43.4C762.7,346.1,772.9,346.1,779.1,339.9z"/>
</g>
<g>
	<path d="M93.4,103.7c5.7,3.5,10.2,8.3,13.4,14.5c3.2,6.1,4.9,12.9,4.9,20.4c0,7.6-1.6,14.2-4.8,19.7c-3.2,5.5-7.5,9.7-12.8,12.5
		c-5.3,2.8-11.1,4.2-17.5,4.2c-7,0-13.5-1.6-19.7-4.9c-0.3,13.1-3,22.8-8.1,29.3c-5.1,6.5-12.9,9.7-23.3,9.7
		c-3.9,0-8.4-0.5-13.5-1.5v-20.4c4.4,1.2,8.2,1.8,11.4,1.8c4.8,0,8.1-1.6,9.9-4.8c1.8-3.2,2.7-8.4,2.7-15.6v-25.9
		c0-8.6,1.6-16.3,4.7-23c3.1-6.7,7.5-12,13.3-15.7c5.7-3.8,12.4-5.6,20-5.6C81.2,98.5,87.7,100.2,93.4,103.7z M85.7,151.4
		c3.3-3,5-7.2,5-12.8c0-5.7-1.5-10.3-4.4-13.8c-2.9-3.6-6.9-5.4-12-5.4c-5.7,0-10,2.1-12.9,6.2c-3,4.1-4.4,9.9-4.3,17.2v8.1
		c5.2,3.3,10.5,5,16,5C78.1,155.9,82.3,154.4,85.7,151.4z M132.9,154.5v20.6c-12.4,0-21.3-2.8-26.8-8.3c-5.4-5.6-8.1-14-8.1-25.3
		c0-2,0-3.6,0.1-4.7h13.3c0,5.3,1.5,9.5,4.4,12.7C119.4,152.8,125.1,154.5,132.9,154.5z"/>
	<path d="M228.6,154.5v20.6c-13.6,0-23.4-3.5-29.3-10.4c-7,7-17.7,10.4-32.3,10.4h-34.1c-3.2,0-5.8-1-7.6-3.1
		c-1.9-2-2.8-4.4-2.8-7.2s0.9-5.2,2.8-7.2c1.9-2,4.4-3.1,7.6-3.1H167c5.1,0,9-0.4,11.8-1.1c2.8-0.7,4.8-2,5.9-3.7
		c1.2-1.7,1.7-4.2,1.7-7.4c0-4.1-1.8-7.6-5.5-10.7c-3.7-3.1-8.9-5.4-15.6-7.1c-6.7-1.7-14.6-2.5-23.6-2.5l-4.2-26.1
		c9.4-7,19.4-12.6,30-16.8c10.6-4.1,23.5-7.4,38.7-9.8l3.1,20.6c-8.3,1-16.6,2.8-24.8,5.4c-8.2,2.6-15.5,5.7-21.8,9.2
		c13.8,1.9,24.6,6.1,32.5,12.6c7.8,6.4,11.9,14.5,12.2,24.3C208.8,150.1,215.8,154.5,228.6,154.5z"/>
	<path d="M311.5,175.1h-82.9c-3.2,0-5.9-0.9-8-2.9c-2.1-1.9-3.1-4.3-3.1-7.3c0-3.2,1-5.7,3.1-7.6c2-1.9,4.7-2.9,8.1-2.9H239
		c-2.7-5.1-4-10.8-4-17.1c0-6.9,1.6-13.2,4.9-19.1c3.3-5.8,8.5-10.6,15.6-14.2c7.1-3.6,16.3-5.4,27.4-5.4h28.5V175.1z M252.7,85.7
		c-2.3-2.3-3.5-5.1-3.5-8.3c0-3.2,1.2-6,3.5-8.3c2.3-2.3,5.1-3.5,8.3-3.5c3.2,0,6,1.2,8.3,3.5c2.3,2.3,3.5,5.1,3.5,8.3
		c0,3.2-1.2,6-3.5,8.3c-2.3,2.3-5.1,3.5-8.3,3.5C257.8,89.1,255,88,252.7,85.7z M290.3,119.7h-7.6c-9.6,0-16.5,1.7-20.7,5
		s-6.3,7.5-6.3,12.5s2.1,9.1,6.3,12.4c4.2,3.2,11.2,4.9,21,4.9h7.4V119.7z M280.3,85.7c-2.3-2.3-3.5-5.1-3.5-8.3
		c0-3.2,1.2-6,3.5-8.3c2.3-2.3,5.1-3.5,8.3-3.5c3.2,0,6,1.2,8.3,3.5c2.3,2.3,3.5,5.1,3.5,8.3c0,3.2-1.2,6-3.5,8.3
		c-2.3,2.3-5.1,3.5-8.3,3.5C285.4,89.1,282.7,88,280.3,85.7z"/>
	<path d="M417,175.1h-14.7c-1.7,11.3-6,19.9-12.9,25.7c-7,5.8-16.4,8.7-28.4,8.7c-5.8,0-12.1-0.6-18.8-1.8v-20.3
		c6,0.8,11.3,1.3,15.7,1.3c6.4,0,11.5-1.1,15.2-3.3c3.8-2.2,6.3-5.6,7.7-10.2H375c-10.9,0-20-1.7-27-5.2c-7.1-3.5-12.3-8-15.5-13.7
		c-3.2-5.7-4.9-11.8-4.9-18.5c0-6.8,1.7-13.1,5-18.9c3.3-5.8,8.6-10.6,15.7-14.2c7.1-3.6,16.1-5.4,27-5.4H403v55.3h14V175.1z
		 M354.3,149.6c4.3,3.2,11.3,4.9,21,4.9h7v-34.3H375c-9.6,0-16.6,1.6-20.8,4.9c-4.2,3.3-6.3,7.4-6.3,12.3
		C347.9,142.3,350,146.4,354.3,149.6z"/>
	<path d="M547.2,98.7v76.3h-28.6c-6.2,0-11.4-0.9-15.4-2.9c-4.1-1.9-7.3-4.7-9.6-8.6c-2.8,3.6-6.1,6.4-9.9,8.4c-3.8,2-7.9,3-12.4,3
		H417c-3.2,0-5.9-1-8-2.9c-2.1-1.9-3.1-4.4-3.1-7.4c0-3,1-5.4,3.1-7.4c2.1-1.9,4.8-2.9,8-2.9h17.4v-51.2h21v51.2h13.1
		c7.9,0,11.8-5.9,11.8-17.8v-33.4h21v33.4c0,6.1,1.2,10.6,3.5,13.5c2.4,2.9,6,4.3,10.9,4.3h10.4V98.7H547.2z"/>
</g>
<g class="st1">
	<g>
		<path class="st2" d="M40.2,265.2c1.3,1.4,3.4,2.1,6.1,2.1v3.7c-2.9,0-5.3-0.6-7.3-1.9c-1.9-1.3-3.3-3.1-4-5.5
			c-1.7,4.3-5.2,6.4-10.4,6.4c-2,0-3.9-0.5-5.5-1.4c-1.6-1-2.9-2.3-3.9-4.1c-0.9-1.8-1.4-3.8-1.4-6.1c0-2.9,0.7-5.4,2.1-7.5
			c1.4-2.1,3.2-3.6,5.6-4.7c2.4-1.1,5.1-1.6,8.1-1.6c1.4,0,3,0.1,4.7,0.4v-2.8h3.9v16.8C38.2,261.7,38.9,263.8,40.2,265.2z
			 M30.2,265c1.3-0.9,2.3-2.1,3.1-3.7c0.7-1.6,1.1-3.4,1.1-5.4v-7.4c-1.5-0.3-3.1-0.5-4.6-0.5c-2.3,0-4.4,0.4-6.2,1.3
			c-1.8,0.8-3.2,2-4.3,3.6c-1,1.6-1.5,3.4-1.5,5.6c0,2.5,0.7,4.4,2.1,5.8c1.4,1.4,3.3,2.1,5.8,2.1C27.3,266.3,28.8,265.9,30.2,265z
			 M22.5,239.5c-0.5-0.5-0.7-1-0.7-1.7c0-0.6,0.2-1.2,0.7-1.6c0.5-0.5,1-0.7,1.7-0.7c0.6,0,1.2,0.2,1.6,0.7c0.5,0.5,0.7,1,0.7,1.6
			c0,0.6-0.2,1.2-0.7,1.7c-0.5,0.5-1,0.7-1.6,0.7C23.5,240.2,22.9,240,22.5,239.5z M30.5,239.5c-0.5-0.5-0.7-1-0.7-1.7
			c0-0.6,0.2-1.2,0.7-1.6c0.5-0.5,1-0.7,1.7-0.7c0.6,0,1.2,0.2,1.6,0.7c0.5,0.5,0.7,1,0.7,1.6c0,0.6-0.2,1.2-0.7,1.7
			c-0.5,0.5-1,0.7-1.6,0.7C31.5,240.2,31,240,30.5,239.5z"/>
		<path class="st2" d="M60.2,265.2c1.3,1.4,3.4,2.1,6.1,2.1v3.7c-4.8,0-8-1.7-9.7-5.2c-1,1.7-2.3,3-4.1,3.9
			c-1.8,0.9-3.8,1.3-6.3,1.3c-0.6,0-1.2-0.2-1.6-0.6c-0.4-0.4-0.6-0.8-0.6-1.4c0-0.5,0.2-1,0.6-1.3c0.4-0.3,0.9-0.5,1.6-0.5
			c5.4,0,8.1-2.8,8.1-8.3v-11.1h3.9v11.1C58.2,261.7,58.9,263.8,60.2,265.2z M50.6,279.4c-0.5-0.5-0.7-1-0.7-1.7
			c0-0.6,0.2-1.2,0.7-1.6c0.5-0.5,1-0.7,1.7-0.7c0.6,0,1.2,0.2,1.6,0.7c0.5,0.5,0.7,1,0.7,1.6c0,0.6-0.2,1.2-0.7,1.7
			c-0.5,0.5-1,0.7-1.6,0.7C51.6,280.1,51.1,279.8,50.6,279.4z M58.6,279.4c-0.5-0.5-0.7-1-0.7-1.7c0-0.6,0.2-1.2,0.7-1.6
			c0.5-0.5,1-0.7,1.7-0.7c0.6,0,1.2,0.2,1.6,0.7c0.5,0.5,0.7,1,0.7,1.6c0,0.6-0.2,1.2-0.7,1.7c-0.5,0.5-1,0.7-1.6,0.7
			C59.7,280.1,59.1,279.8,58.6,279.4z"/>
		<path class="st2" d="M74.4,247.9h3.9v23h-12c-0.6,0-1.2-0.2-1.6-0.6c-0.4-0.4-0.6-0.8-0.6-1.4c0-0.5,0.2-1,0.6-1.3
			c0.4-0.3,0.9-0.5,1.6-0.5h8.1V247.9z M74.7,241.9c-0.5-0.5-0.7-1-0.7-1.7c0-0.6,0.2-1.2,0.7-1.6c0.5-0.5,1-0.7,1.7-0.7
			c0.6,0,1.2,0.2,1.6,0.7c0.5,0.5,0.7,1,0.7,1.6c0,0.6-0.2,1.2-0.7,1.7c-0.5,0.5-1,0.7-1.6,0.7C75.7,242.6,75.2,242.4,74.7,241.9z"
			/>
		<path class="st2" d="M109.7,244.5v22.6c0,5.4-1.1,9.4-3.3,12.2c-2.2,2.8-5.4,4.1-9.6,4.1c-1.8,0-3.6-0.2-5.4-0.6l0-3.6
			c1.9,0.3,3.5,0.4,4.8,0.4c3.4,0,5.9-1,7.4-2.9c1.5-2,2.3-5.2,2.3-9.7v-1.4c-1,1.6-2.3,2.9-3.9,3.9c-1.6,0.9-3.4,1.4-5.5,1.4
			c-2,0-3.9-0.6-5.6-1.7c-1.7-1.1-3-2.6-4-4.5c-1-1.9-1.5-4-1.5-6.4c0-2.7,0.6-5.1,1.8-7.2c1.2-2.1,3-3.7,5.3-4.9
			c2.4-1.2,5.2-1.8,8.6-1.8H109.7z M101.8,266c1.3-0.8,2.3-1.9,3-3.2c0.7-1.4,1.1-2.8,1.1-4.4v-10h-4.9c-3.9,0-6.9,0.9-8.8,2.7
			s-2.9,4.2-2.9,7.2c0,1.7,0.4,3.3,1.1,4.6c0.7,1.4,1.7,2.4,3,3.2c1.3,0.8,2.7,1.1,4.3,1.1C99.1,267.2,100.5,266.8,101.8,266z"/>
		<path class="st2" d="M130.5,270.9H125v2c0,3-0.6,5.2-1.8,6.7c-1.2,1.5-3,2.2-5.5,2.2c-1.4,0-2.9-0.2-4.6-0.7l0.8-3.5
			c1.3,0.3,2.3,0.4,3.2,0.4c1.4,0,2.4-0.4,3.1-1.2c0.7-0.8,1-2.2,1-4v-25h3.9v19.3h5.6V270.9z"/>
		<path class="st2" d="M144.5,265.2c1.3,1.4,3.4,2.1,6.1,2.1v3.7c-4.8,0-8-1.7-9.7-5.2c-1,1.7-2.3,3-4.1,3.9
			c-1.8,0.9-3.8,1.3-6.3,1.3c-0.6,0-1.2-0.2-1.6-0.6c-0.4-0.4-0.6-0.8-0.6-1.4c0-0.5,0.2-1,0.6-1.3s0.9-0.5,1.6-0.5
			c5.4,0,8.1-2.8,8.1-8.3v-11.1h3.9v11.1C142.5,261.7,143.2,263.8,144.5,265.2z M134.9,241.9c-0.5-0.5-0.7-1-0.7-1.7
			c0-0.6,0.2-1.2,0.7-1.6c0.5-0.5,1-0.7,1.7-0.7s1.2,0.2,1.6,0.7c0.5,0.5,0.7,1,0.7,1.6c0,0.6-0.2,1.2-0.7,1.7
			c-0.5,0.5-1,0.7-1.6,0.7S135.4,242.4,134.9,241.9z M142.9,241.9c-0.5-0.5-0.7-1-0.7-1.7c0-0.6,0.2-1.2,0.7-1.6
			c0.5-0.5,1-0.7,1.7-0.7c0.6,0,1.2,0.2,1.6,0.7c0.5,0.5,0.7,1,0.7,1.6c0,0.6-0.2,1.2-0.7,1.7c-0.5,0.5-1,0.7-1.6,0.7
			C143.9,242.6,143.4,242.4,142.9,241.9z"/>
		<path class="st2" d="M183.5,267.2v3.7c-4.7,0-7.8-1.7-9.5-5c-1,1.6-2.5,2.8-4.4,3.7c-1.9,0.9-4.1,1.3-6.7,1.3h-12.3
			c-0.6,0-1.1-0.2-1.4-0.6c-0.4-0.4-0.5-0.8-0.5-1.3c0-0.5,0.2-0.9,0.5-1.3c0.4-0.4,0.8-0.6,1.4-0.6h12.3c2.9,0,5.1-0.6,6.6-1.8
			c1.5-1.2,2.3-3,2.3-5.4c0-3.1-1.6-5.6-4.8-7.5s-8-3-14.2-3.5l-0.5-5.1c3.2-2.4,6.8-4.5,10.8-6.2c4-1.8,8.1-3,12.4-3.8l0.8,3.7
			c-4.2,0.8-8,2-11.6,3.5c-3.6,1.5-6.5,3.1-8.8,4.8c6.5,0.8,11.5,2.4,14.8,4.8c3.3,2.4,5,5.5,5,9.4v0.8
			C176.1,265.1,178.7,267.3,183.5,267.2z"/>
		<path class="st2" d="M191.6,234.2h3.9v36.8h-12c-0.6,0-1.2-0.2-1.6-0.5c-0.4-0.3-0.6-0.8-0.6-1.4s0.2-1,0.6-1.4
			c0.4-0.3,0.9-0.5,1.6-0.5h8.1V234.2z"/>
		<path class="st2" d="M231.5,234.2v36.8h-29.2v-3.7h11.5l-8.4-27h4l8.4,27h9.9v-33.1H231.5z M216.7,286.3h-10.9v-3h1.4
			c-0.8-0.7-1.2-1.8-1.2-3.1c0-1.3,0.6-2.5,1.7-3.5c1.1-1,2.5-1.5,4.1-1.5c1.1,0,2.3,0.3,3.6,0.9l-1.5,2.7c-0.7-0.3-1.4-0.5-2.1-0.5
			c-0.8,0-1.4,0.2-1.9,0.6c-0.5,0.4-0.7,1-0.7,1.6c0,0.8,0.3,1.4,0.9,1.9c0.6,0.5,1.3,0.7,2.1,0.7h4.5V286.3z"/>
		<path class="st2" d="M239.4,234.2h3.9v36.8h-3.9V234.2z"/>
		<path class="st2" d="M266.7,269.1c-1.9-1.2-3.2-2.8-4.2-4.8c-0.9-2-1.4-4.1-1.4-6.4c0-2.3,0.5-4.5,1.4-6.5c1-2.1,2.4-3.7,4.2-5
			c1.9-1.3,4.1-1.9,6.7-1.9c2.6,0,4.8,0.6,6.6,1.9s3.2,2.9,4.2,4.9c0.9,2,1.4,4.2,1.4,6.5c0,2.3-0.5,4.4-1.4,6.4
			c-0.9,2-2.3,3.6-4.2,4.9c-1.9,1.2-4.1,1.9-6.7,1.9C270.8,270.9,268.6,270.3,266.7,269.1z M278.1,265.9c1.3-0.9,2.2-2,2.8-3.4
			c0.6-1.4,1-2.9,1-4.5c0-1.7-0.3-3.2-1-4.7c-0.7-1.5-1.6-2.7-2.9-3.6c-1.3-0.9-2.8-1.4-4.6-1.4c-1.8,0-3.3,0.5-4.6,1.4
			c-1.3,0.9-2.2,2.1-2.9,3.5s-1,3-1,4.6c0,1.6,0.3,3.2,1,4.6c0.7,1.4,1.6,2.6,2.9,3.5c1.3,0.9,2.8,1.3,4.6,1.3
			S276.8,266.8,278.1,265.9z M268.2,239.5c-0.5-0.5-0.7-1-0.7-1.7c0-0.6,0.2-1.2,0.7-1.6c0.5-0.5,1-0.7,1.7-0.7
			c0.6,0,1.2,0.2,1.6,0.7c0.5,0.5,0.7,1,0.7,1.6c0,0.6-0.2,1.2-0.7,1.7c-0.5,0.5-1,0.7-1.6,0.7C269.2,240.2,268.6,240,268.2,239.5z
			 M276.2,239.5c-0.5-0.5-0.7-1-0.7-1.7c0-0.6,0.2-1.2,0.7-1.6c0.5-0.5,1-0.7,1.7-0.7c0.6,0,1.2,0.2,1.6,0.7c0.5,0.5,0.7,1,0.7,1.6
			c0,0.6-0.2,1.2-0.7,1.7c-0.5,0.5-1,0.7-1.6,0.7C277.2,240.2,276.6,240,276.2,239.5z"/>
		<path class="st2" d="M293.1,278.1c1.4,0,2.4-0.4,3.1-1.2c0.7-0.8,1-2.2,1-4v-25h3.9v25c0,3-0.6,5.2-1.8,6.7
			c-1.2,1.5-3,2.2-5.5,2.2c-1.4,0-2.9-0.2-4.6-0.7l0.8-3.5C291.2,278,292.3,278.1,293.1,278.1z"/>
		<path class="st2" d="M319.8,267.2v3.7h-11.9v-36.8h3.9v33.1H319.8z"/>
		<path class="st2" d="M352.5,267.2v3.7h-32.8c-0.5,0-1-0.2-1.4-0.6c-0.4-0.4-0.6-0.8-0.6-1.4c0-0.5,0.2-0.9,0.6-1.2
			c0.4-0.3,0.8-0.5,1.4-0.5h23.5c-0.3-0.8-0.6-2.2-1-4.3c0-0.4-0.1-0.9-0.3-1.6c-0.5-2.8-1.2-5.1-2-6.8c-0.8-1.7-2-3-3.4-3.9
			c-1.2-0.8-2.6-1.4-4.1-1.8s-3.1-0.6-4.7-0.6c-1.8,0-3.4,0.2-4.9,0.7l-0.7-3.8c1.8-0.5,3.8-0.7,5.9-0.7c2,0,3.9,0.2,5.8,0.8
			s3.6,1.3,5.2,2.3c1.8,1.2,3.2,2.9,4.3,5s1.9,4.9,2.5,8.2c0.4,2,0.7,3.4,0.9,4.2c0.3,0.8,0.6,1.4,1.1,1.8s1.2,0.5,2.2,0.5H352.5z
			 M333.6,279.4c-0.5-0.5-0.7-1-0.7-1.7c0-0.6,0.2-1.2,0.7-1.6c0.5-0.5,1-0.7,1.7-0.7c0.6,0,1.2,0.2,1.6,0.7c0.5,0.5,0.7,1,0.7,1.6
			c0,0.6-0.2,1.2-0.7,1.7c-0.5,0.5-1,0.7-1.6,0.7C334.6,280.1,334,279.9,333.6,279.4z"/>
		<path class="st2" d="M366.5,265.2c1.3,1.4,3.4,2.1,6.1,2.1v3.7c-4.8,0-8-1.7-9.7-5.2c-1,1.7-2.3,3-4.1,3.9
			c-1.8,0.9-3.8,1.3-6.3,1.3c-0.6,0-1.2-0.2-1.6-0.6c-0.4-0.4-0.6-0.8-0.6-1.4c0-0.5,0.2-1,0.6-1.3s0.9-0.5,1.6-0.5
			c5.4,0,8.1-2.8,8.1-8.3v-11.1h3.9v11.1C364.5,261.7,365.2,263.8,366.5,265.2z M356.9,241.9c-0.5-0.5-0.7-1-0.7-1.7
			c0-0.6,0.2-1.2,0.7-1.6c0.5-0.5,1-0.7,1.7-0.7s1.2,0.2,1.6,0.7c0.5,0.5,0.7,1,0.7,1.6c0,0.6-0.2,1.2-0.7,1.7
			c-0.5,0.5-1,0.7-1.6,0.7S357.4,242.4,356.9,241.9z M364.9,241.9c-0.5-0.5-0.7-1-0.7-1.7c0-0.6,0.2-1.2,0.7-1.6
			c0.5-0.5,1-0.7,1.7-0.7c0.6,0,1.2,0.2,1.6,0.7c0.5,0.5,0.7,1,0.7,1.6c0,0.6-0.2,1.2-0.7,1.7c-0.5,0.5-1,0.7-1.6,0.7
			C365.9,242.6,365.4,242.4,364.9,241.9z"/>
		<path class="st2" d="M380.7,234.2h3.9v36.8h-12c-0.6,0-1.2-0.2-1.6-0.5c-0.4-0.3-0.6-0.8-0.6-1.4s0.2-1,0.6-1.4
			c0.4-0.3,0.9-0.5,1.6-0.5h8.1V234.2z"/>
		<path class="st2" d="M392.4,234.2h3.9v36.8h-3.9V234.2z"/>
		<path class="st2" d="M439.1,265.2c1.3,1.4,3.4,2.1,6.1,2.1v3.7c-2.9,0-5.3-0.6-7.3-1.9c-1.9-1.3-3.3-3.1-4-5.5
			c-1.7,4.3-5.2,6.4-10.4,6.4c-2,0-3.9-0.5-5.5-1.4c-1.6-1-2.9-2.3-3.9-4.1c-0.9-1.8-1.4-3.8-1.4-6.1c0-2.9,0.7-5.4,2.1-7.5
			c1.4-2.1,3.2-3.6,5.6-4.7c2.4-1.1,5.1-1.6,8.1-1.6c1.4,0,3,0.1,4.7,0.4v-2.8h3.9v16.8C437.1,261.7,437.7,263.8,439.1,265.2z
			 M429,265c1.3-0.9,2.3-2.1,3.1-3.7c0.7-1.6,1.1-3.4,1.1-5.4v-7.4c-1.5-0.3-3.1-0.5-4.6-0.5c-2.3,0-4.4,0.4-6.2,1.3
			c-1.8,0.8-3.2,2-4.3,3.6s-1.5,3.4-1.5,5.6c0,2.5,0.7,4.4,2.1,5.8c1.4,1.4,3.3,2.1,5.8,2.1C426.2,266.3,427.7,265.9,429,265z
			 M421.3,239.5c-0.5-0.5-0.7-1-0.7-1.7c0-0.6,0.2-1.2,0.7-1.6c0.5-0.5,1-0.7,1.7-0.7c0.6,0,1.2,0.2,1.6,0.7c0.5,0.5,0.7,1,0.7,1.6
			c0,0.6-0.2,1.2-0.7,1.7c-0.5,0.5-1,0.7-1.6,0.7C422.4,240.2,421.8,240,421.3,239.5z M429.4,239.5c-0.5-0.5-0.7-1-0.7-1.7
			c0-0.6,0.2-1.2,0.7-1.6c0.5-0.5,1-0.7,1.7-0.7s1.2,0.2,1.6,0.7c0.5,0.5,0.7,1,0.7,1.6c0,0.6-0.2,1.2-0.7,1.7
			c-0.5,0.5-1,0.7-1.6,0.7S429.8,240,429.4,239.5z"/>
		<path class="st2" d="M486.7,265.2c1.3,1.4,3.4,2.1,6.1,2.1v3.7c-4.8,0-8-1.7-9.7-5.2c-1,1.7-2.3,3-4.1,3.9
			c-1.8,0.9-3.8,1.3-6.3,1.3h-27.6c-0.7,0-1.2-0.2-1.6-0.5c-0.4-0.3-0.6-0.8-0.6-1.4s0.2-1,0.6-1.4c0.4-0.3,0.9-0.5,1.6-0.5h4.5
			v-22.7h3.8v9.9c1.4-3.1,3.6-5.5,6.4-7.3c2.8-1.8,6.1-2.7,9.9-2.7c2.9,0,5.5,0.6,7.8,1.9c2.3,1.2,4.1,3,5.3,5.2
			c1.3,2.2,1.9,4.7,1.9,7.5C484.7,261.7,485.4,263.8,486.7,265.2z M478.9,265.2c1.3-1.4,2-3.4,2-6.2c0-3.2-1-5.8-3-7.7
			c-2-1.9-4.7-2.9-8.1-2.9c-2.9,0-5.5,0.7-8,2c-2.5,1.3-4.5,3.1-6,5.3c-1.5,2.2-2.3,4.7-2.4,7.4v4.2h19.4
			C475.5,267.2,477.5,266.5,478.9,265.2z"/>
		<path class="st2" d="M506.8,265.2c1.3,1.4,3.4,2.1,6.1,2.1v3.7c-4.8,0-8-1.7-9.7-5.2c-1,1.7-2.3,3-4.1,3.9
			c-1.8,0.9-3.8,1.3-6.3,1.3c-0.6,0-1.2-0.2-1.6-0.6c-0.4-0.4-0.6-0.8-0.6-1.4c0-0.5,0.2-1,0.6-1.3s0.9-0.5,1.6-0.5
			c5.4,0,8.1-2.8,8.1-8.3v-11.1h3.9v11.1C504.8,261.7,505.4,263.8,506.8,265.2z M501.2,241.9c-0.5-0.5-0.7-1-0.7-1.7
			c0-0.6,0.2-1.2,0.7-1.6c0.5-0.5,1-0.7,1.7-0.7c0.6,0,1.2,0.2,1.6,0.7c0.5,0.5,0.7,1,0.7,1.6c0,0.6-0.2,1.2-0.7,1.7
			c-0.5,0.5-1,0.7-1.6,0.7C502.2,242.6,501.7,242.4,501.2,241.9z"/>
		<path class="st2" d="M537.9,246.3c1.9,1.2,3.3,2.8,4.3,4.9c1,2.1,1.6,4.4,1.6,7c0,2.6-0.6,4.9-1.7,6.9c-1.1,1.9-2.6,3.4-4.5,4.5
			c-1.9,1-3.8,1.6-6,1.6c-1.9,0-3.8-0.4-5.6-1.3c-1.8-0.8-3.4-2.1-4.8-3.7l0,0.1c-0.8,1.5-1.9,2.7-3.3,3.6c-1.5,0.8-3.1,1.3-5.1,1.3
			c-0.6,0-1.2-0.2-1.6-0.6c-0.4-0.4-0.6-0.8-0.6-1.4c0-0.5,0.2-1,0.6-1.3s0.9-0.5,1.6-0.5c1.2,0,2.3-0.3,3.3-0.9
			c1-0.6,1.6-1.4,2.1-2.4c0.4-0.8,0.6-1.8,0.8-2.8s0.3-1.7,0.3-1.9c0.2-1.6,0.5-3,0.8-4.2c0.9-3.4,2.3-6.1,4.2-7.9
			c1.9-1.8,4.4-2.7,7.3-2.7C533.9,244.5,536,245.1,537.9,246.3z M535.7,266.2c1.3-0.7,2.3-1.8,3.1-3.2c0.8-1.4,1.2-3,1.2-4.9
			c0-2.9-0.8-5.2-2.3-7c-1.5-1.8-3.5-2.7-6.1-2.7c-2,0-3.6,0.6-4.8,1.8c-1.2,1.2-2.2,3-2.9,5.4c-0.4,1.4-0.7,2.9-1,4.6l-0.5,2.3
			c1.3,1.6,2.7,2.8,4.3,3.6c1.6,0.8,3.2,1.2,4.8,1.2C533,267.3,534.4,266.9,535.7,266.2z"/>
	</g>
</g>
</svg>
