<?xml version="1.0" encoding="utf-8"?>
<!-- Generator: Adobe Illustrator 26.0.2, SVG Export Plug-In . SVG Version: 6.00 Build 0)  -->
<svg version="1.1" id="Layer_1" xmlns="http://www.w3.org/2000/svg" xmlns:xlink="http://www.w3.org/1999/xlink" x="0px" y="0px"
	 viewBox="0 0 1020.2 350" style="enable-background:new 0 0 1020.2 350;" xml:space="preserve">
<style type="text/css">
	.st0{fill:#7367F0;}
	.st1{opacity:0.9;}
	.st2{fill:#4B465C;}
</style>
<path class="st0" d="M160.6,126.1l59.5-59.5c6.2-6.2,16.4-6.2,22.6,0l97.1,97.1c6.2,6.2,6.2,16.4,0,22.6l-59.5,59.5
	c-6.2,6.2-16.4,6.2-22.6,0l-97.1-97.1C154.4,142.5,154.4,132.4,160.6,126.1z"/>
<path class="st0" d="M104.2,69.7l59.5-59.5c6.2-6.2,16.4-6.2,22.6,0l22.1,22.1c6.2,6.2,6.2,16.4,0,22.6l-59.5,59.5
	c-6.2,6.2-16.4,6.2-22.6,0l-22.1-22.1C97.9,86,97.9,75.9,104.2,69.7z"/>
<path class="st0" d="M108.5,262.1l59.5-59.5c6.2-6.2,6.2-16.4,0-22.6l-75.7-75.7c-6.2-6.2-16.4-6.2-22.6,0l-59.5,59.5
	c-6.2,6.2-6.2,16.4,0,22.6l75.7,75.7C92.1,268.3,102.3,268.3,108.5,262.1z"/>
<path class="st0" d="M186.3,339.9l59.5-59.5c6.2-6.2,6.2-16.4,0-22.6l-43.4-43.4c-6.2-6.2-16.4-6.2-22.6,0l-59.5,59.5
	c-6.2,6.2-6.2,16.4,0,22.6l43.4,43.4C169.9,346.1,180.1,346.1,186.3,339.9z"/>
<g>
	<path d="M408.6,185.7c-6.8,0-13.5-1.3-20.1-3.9c-6.6-2.6-12.4-6.2-17.6-10.8l10.1-12.8c5,4.4,9.7,7.6,14.3,9.6c4.6,2,9.4,3,14.6,3
		c3.6,0,6.7-0.4,9.3-1.3c2.6-0.9,4.6-2.1,6-3.7c1.4-1.6,2.1-3.5,2.1-5.7c0-2.9-1.1-5.2-3.2-6.8c-2.1-1.6-5.7-2.8-10.8-3.7l-16.9-2.9
		c-7.2-1.3-12.8-3.9-16.6-7.7c-3.8-3.9-5.7-8.9-5.7-15.1c0-5.3,1.4-9.9,4.1-13.7c2.8-3.9,6.6-6.8,11.6-8.9c5-2.1,10.9-3.1,17.9-3.1
		c6.2,0,12.4,1,18.7,3.1c6.3,2.1,11.8,5,16.5,8.8l-9.5,13c-8.9-6.8-17.9-10.2-26.9-10.2c-3.2,0-5.9,0.4-8.3,1.2
		c-2.4,0.8-4.2,1.9-5.4,3.4c-1.3,1.4-1.9,3.1-1.9,4.9c0,2.8,1,4.8,2.9,6.2c1.9,1.4,5,2.5,9.3,3.3l16.1,2.6
		c8.5,1.4,14.9,4.1,19.2,8.1c4.3,4,6.4,9.3,6.4,15.9c0,5.5-1.5,10.3-4.4,14.4c-3,4.1-7.2,7.2-12.6,9.5
		C422.4,184.5,416,185.7,408.6,185.7z"/>
	<path d="M491.7,185.7c-7.6,0-14.3-1.5-20-4.6c-5.7-3.1-10.1-7.5-13.1-13.2c-3-5.7-4.6-12.5-4.6-20.3V99.1h17.6v48.4
		c0,4.5,0.8,8.3,2.5,11.6c1.7,3.3,4,5.8,7.1,7.6c3,1.7,6.6,2.6,10.5,2.6c4.2,0,7.8-0.9,10.8-2.6c3-1.7,5.3-4.3,6.9-7.6
		c1.6-3.3,2.4-7.2,2.4-11.6V99.1h17.7v48.4c0,7.7-1.5,14.4-4.6,20.2c-3.1,5.7-7.5,10.2-13.1,13.3
		C506.1,184.1,499.5,185.7,491.7,185.7z"/>
	<path d="M610.7,188.6l-5.7-7.1c-2.9,1.3-6,2.3-9.3,3.1c-3.3,0.8-6.7,1.2-10.2,1.2c-6.3,0-12.1-1.1-17.6-3.4
		c-5.5-2.2-10.3-5.4-14.4-9.4c-4.1-4-7.3-8.7-9.6-14c-2.3-5.3-3.5-11.1-3.5-17.2c0-6.2,1.2-11.9,3.5-17.2c2.3-5.3,5.5-10,9.6-14
		c4.1-4,8.9-7.1,14.4-9.4c5.5-2.2,11.4-3.4,17.6-3.4c6.4,0,12.4,1.1,17.8,3.4c5.4,2.2,10.2,5.4,14.3,9.4c4.1,4,7.3,8.7,9.6,14
		c2.3,5.3,3.4,11.1,3.4,17.2c0,6.1-1.2,11.8-3.5,17.1c-2.3,5.3-5.5,10-9.4,14.1l8.5,10.5L610.7,188.6z M585.5,169.6
		c1.5,0,3-0.1,4.5-0.4c1.5-0.3,2.8-0.8,4.1-1.4l-9.3-11.3l15.5-5.2l6.3,7.9c1.8-2.4,3.2-5,4.3-8c1.1-3,1.6-6.1,1.6-9.3
		c0-4.1-0.7-7.7-2.1-11c-1.4-3.3-3.3-6.2-5.7-8.7c-2.4-2.5-5.3-4.5-8.5-5.9c-3.3-1.4-6.8-2.1-10.7-2.1c-3.7,0-7.3,0.7-10.5,2.1
		c-3.3,1.4-6.2,3.4-8.6,5.9c-2.4,2.5-4.3,5.4-5.7,8.7c-1.4,3.3-2.1,7-2.1,11c0,3.9,0.7,7.5,2.1,10.9c1.4,3.4,3.3,6.3,5.7,8.8
		c2.4,2.5,5.3,4.5,8.6,5.9C578.2,168.9,581.7,169.6,585.5,169.6z"/>
	<path d="M679.1,185.7c-7.6,0-14.3-1.5-20-4.6c-5.7-3.1-10.1-7.5-13.1-13.2c-3-5.7-4.6-12.5-4.6-20.3V99.1H659v48.4
		c0,4.5,0.8,8.3,2.5,11.6c1.7,3.3,4,5.8,7.1,7.6c3,1.7,6.6,2.6,10.5,2.6c4.2,0,7.8-0.9,10.8-2.6c3-1.7,5.3-4.3,6.9-7.6
		c1.6-3.3,2.4-7.2,2.4-11.6V99.1h17.7v48.4c0,7.7-1.5,14.4-4.6,20.2c-3.1,5.7-7.5,10.2-13.1,13.3
		C693.5,184.1,686.8,185.7,679.1,185.7z"/>
	<path d="M773.1,185.7c-6.3,0-12.3-1.1-17.8-3.4c-5.5-2.2-10.3-5.3-14.4-9.3c-4.1-4-7.3-8.6-9.6-14c-2.3-5.3-3.5-11.1-3.5-17.2
		c0-6.2,1.2-11.9,3.5-17.2c2.3-5.3,5.5-10,9.7-14c4.1-4,9-7.1,14.4-9.4c5.5-2.2,11.4-3.4,17.7-3.4c4.7,0,9.3,0.7,13.7,2
		c4.4,1.3,8.5,3.1,12.2,5.5c3.8,2.4,7,5.2,9.7,8.5l-11.9,11.7c-3-3.8-6.5-6.7-10.6-8.6c-4.1-1.9-8.4-2.9-13-2.9
		c-3.8,0-7.4,0.7-10.7,2.1c-3.3,1.4-6.2,3.4-8.7,5.9c-2.4,2.5-4.3,5.4-5.7,8.7c-1.4,3.3-2.1,7-2.1,11.1c0,3.9,0.7,7.5,2.1,10.9
		c1.4,3.4,3.4,6.3,5.9,8.8c2.5,2.5,5.4,4.4,8.8,5.8c3.4,1.4,7.1,2.1,11.2,2.1c4.5,0,8.7-0.9,12.6-2.8c3.9-1.9,7.3-4.5,10.2-8
		l11.5,11.5c-2.7,3.3-5.9,6.1-9.6,8.4c-3.7,2.4-7.7,4.2-12.1,5.4C782,185,777.5,185.7,773.1,185.7z"/>
	<path d="M860.3,185.8c-6.3,0-12.2-1.1-17.7-3.4c-5.5-2.2-10.3-5.4-14.4-9.4c-4.1-4-7.3-8.7-9.6-14c-2.3-5.3-3.5-11.1-3.5-17.2
		c0-6.2,1.2-11.9,3.5-17.2c2.3-5.3,5.5-10,9.6-14c4.1-4,8.9-7.1,14.4-9.4c5.5-2.2,11.4-3.4,17.7-3.4c6.3,0,12.1,1.1,17.6,3.4
		c5.5,2.2,10.3,5.4,14.4,9.4c4.1,4,7.3,8.7,9.6,14c2.3,5.3,3.4,11.1,3.4,17.2c0,6.2-1.1,11.9-3.4,17.2c-2.3,5.3-5.5,10-9.6,14
		c-4.1,4-8.9,7.2-14.4,9.4C872.5,184.7,866.6,185.8,860.3,185.8z M860.3,169.6c3.8,0,7.4-0.7,10.6-2.1c3.2-1.4,6.1-3.4,8.5-5.9
		c2.4-2.5,4.3-5.5,5.7-8.8c1.4-3.4,2.1-7,2.1-10.9c0-4.1-0.7-7.7-2.1-11c-1.4-3.3-3.3-6.2-5.7-8.7c-2.4-2.5-5.3-4.5-8.5-5.9
		c-3.3-1.4-6.7-2.1-10.5-2.1c-3.9,0-7.5,0.7-10.8,2.1c-3.3,1.4-6.2,3.4-8.6,5.9c-2.4,2.5-4.3,5.4-5.7,8.7c-1.4,3.3-2.1,6.9-2.1,10.8
		c0,4.1,0.7,7.8,2.1,11.2c1.4,3.4,3.3,6.3,5.7,8.8c2.4,2.5,5.3,4.5,8.6,5.9C853,168.9,856.5,169.6,860.3,169.6z"/>
	<path d="M917.4,184.4V99.1h22.8l23.3,46.1l23.4-46.1h22.5v85.3h-16.6v-62.8l-29.6,56.7l-29.5-56.9v63H917.4z"/>
</g>
<g class="st1">
	<g>
		<path class="st2" d="M386.1,264.2c-2.5,0-4.8-0.6-6.8-1.7c-2-1.2-3.6-2.7-4.8-4.8c-1.2-2-1.8-4.3-1.8-6.7s0.6-4.7,1.7-6.7
			c1.2-2,2.7-3.5,4.6-4.7c1.9-1.2,4.1-1.8,6.5-1.8c2.3,0,4.4,0.6,6.3,1.8c1.9,1.2,3.3,2.8,4.4,4.8c1.1,2,1.6,4.3,1.6,6.8v1.4h-20.1
			c0.2,1.4,0.7,2.7,1.5,3.8c0.8,1.1,1.8,2,3,2.6c1.2,0.7,2.6,1,4,1c1.3,0,2.5-0.2,3.6-0.6c1.1-0.4,2.1-0.9,2.9-1.6l3.2,3.1
			c-1.4,1.1-3,2-4.6,2.5C389.8,263.9,388,264.2,386.1,264.2z M377.8,248.9h15.1c-0.2-1.3-0.7-2.5-1.4-3.5c-0.7-1-1.6-1.8-2.6-2.4
			c-1-0.6-2.2-0.9-3.5-0.9s-2.4,0.3-3.5,0.9c-1.1,0.6-2,1.4-2.7,2.4C378.5,246.4,378,247.5,377.8,248.9z"/>
		<path class="st2" d="M420.1,264.3c-2.6,0-5-0.5-7.2-1.4c-2.2-0.9-4.2-2.2-5.9-3.9c-1.7-1.7-3-3.6-3.9-5.8
			c-0.9-2.2-1.4-4.5-1.4-7.1c0-2.6,0.5-4.9,1.4-7.1c0.9-2.2,2.2-4.1,3.9-5.7c1.7-1.6,3.6-2.9,5.9-3.8c2.2-0.9,4.6-1.4,7.2-1.4
			c1.8,0,3.6,0.2,5.4,0.7s3.4,1.2,4.9,2.1c1.5,0.9,2.8,2,3.9,3.3l-3.6,3.6c-1.3-1.6-2.9-2.8-4.8-3.6c-1.9-0.8-3.8-1.2-5.9-1.2
			c-1.9,0-3.6,0.3-5.2,1c-1.6,0.7-2.9,1.6-4.1,2.8c-1.2,1.2-2.1,2.6-2.8,4.2s-1,3.3-1,5.2c0,1.9,0.3,3.6,1,5.2
			c0.7,1.6,1.6,3,2.8,4.2c1.2,1.2,2.6,2.1,4.2,2.8c1.6,0.7,3.3,1,5.2,1c2,0,4-0.4,5.8-1.2s3.4-2,4.7-3.5l3.5,3.5
			c-1.1,1.2-2.4,2.3-3.9,3.2c-1.5,0.9-3.1,1.6-4.8,2.1C423.6,264.1,421.9,264.3,420.1,264.3z"/>
		<path class="st2" d="M450.8,264.3c-2.5,0-4.7-0.6-6.7-1.7c-2-1.2-3.6-2.7-4.8-4.8c-1.2-2-1.8-4.3-1.8-6.7c0-2.5,0.6-4.7,1.8-6.7
			c1.2-2,2.8-3.6,4.8-4.8c2-1.2,4.3-1.8,6.8-1.8c2.5,0,4.7,0.6,6.7,1.8c2,1.2,3.6,2.8,4.8,4.8c1.2,2,1.8,4.2,1.8,6.7
			c0,2.5-0.6,4.7-1.8,6.7c-1.2,2-2.8,3.6-4.8,4.8C455.5,263.7,453.3,264.3,450.8,264.3z M450.8,259.9c1.6,0,3-0.4,4.3-1.2
			c1.3-0.8,2.3-1.8,3-3.2c0.7-1.3,1.1-2.8,1.1-4.5c0-1.6-0.4-3.1-1.1-4.4s-1.7-2.4-3-3.2c-1.3-0.8-2.7-1.2-4.3-1.2
			c-1.5,0-2.9,0.4-4.2,1.2c-1.3,0.8-2.3,1.9-3,3.2c-0.7,1.3-1.1,2.8-1.1,4.4c0,1.7,0.4,3.2,1.1,4.5c0.7,1.3,1.7,2.4,3,3.2
			C447.9,259.5,449.3,259.9,450.8,259.9z"/>
		<path class="st2" d="M468.8,263.8v-25.5h5v2.4c1.9-1.9,4.3-2.9,7.2-2.9c1.7,0,3.3,0.4,4.7,1.2c1.4,0.8,2.4,1.8,3.2,3.2
			c1-1.4,2.3-2.5,3.7-3.2c1.5-0.7,3.1-1.1,4.9-1.1c1.9,0,3.6,0.4,5,1.3c1.4,0.8,2.5,2,3.3,3.5c0.8,1.5,1.2,3.2,1.2,5.2v16h-5v-15.2
			c0-2-0.5-3.6-1.6-4.7c-1.1-1.2-2.5-1.7-4.2-1.7c-1.3,0-2.4,0.3-3.4,0.9c-1,0.6-1.9,1.4-2.6,2.6c0.1,0.3,0.1,0.7,0.2,1.1
			s0,0.7,0,1.1v16h-5v-15.2c0-2-0.5-3.6-1.6-4.7c-1.1-1.2-2.5-1.7-4.2-1.7c-1.2,0-2.3,0.3-3.3,0.8c-1,0.5-1.8,1.3-2.5,2.3v18.5
			H468.8z"/>
		<path class="st2" d="M512.7,263.8v-25.5h5v2.4c1.9-1.9,4.3-2.9,7.2-2.9c1.7,0,3.3,0.4,4.7,1.2c1.4,0.8,2.4,1.8,3.2,3.2
			c1-1.4,2.3-2.5,3.7-3.2c1.5-0.7,3.1-1.1,4.9-1.1c1.9,0,3.6,0.4,5,1.3c1.4,0.8,2.5,2,3.3,3.5c0.8,1.5,1.2,3.2,1.2,5.2v16h-5v-15.2
			c0-2-0.5-3.6-1.6-4.7c-1.1-1.2-2.5-1.7-4.2-1.7c-1.3,0-2.4,0.3-3.4,0.9c-1,0.6-1.9,1.4-2.6,2.6c0.1,0.3,0.1,0.7,0.2,1.1
			s0,0.7,0,1.1v16h-5v-15.2c0-2-0.5-3.6-1.6-4.7c-1.1-1.2-2.5-1.7-4.2-1.7c-1.2,0-2.3,0.3-3.3,0.8c-1,0.5-1.8,1.3-2.5,2.3v18.5
			H512.7z"/>
		<path class="st2" d="M568.9,264.2c-2.5,0-4.8-0.6-6.8-1.7c-2-1.2-3.6-2.7-4.8-4.8c-1.2-2-1.8-4.3-1.8-6.7s0.6-4.7,1.7-6.7
			c1.2-2,2.7-3.5,4.6-4.7c1.9-1.2,4.1-1.8,6.5-1.8c2.3,0,4.4,0.6,6.3,1.8c1.9,1.2,3.3,2.8,4.4,4.8c1.1,2,1.6,4.3,1.6,6.8v1.4h-20.1
			c0.2,1.4,0.7,2.7,1.5,3.8c0.8,1.1,1.8,2,3,2.6c1.2,0.7,2.6,1,4,1c1.3,0,2.5-0.2,3.6-0.6c1.1-0.4,2.1-0.9,2.9-1.6l3.2,3.1
			c-1.4,1.1-3,2-4.6,2.5C572.5,263.9,570.8,264.2,568.9,264.2z M560.6,248.9h15.1c-0.2-1.3-0.7-2.5-1.4-3.5c-0.7-1-1.6-1.8-2.6-2.4
			c-1-0.6-2.2-0.9-3.5-0.9s-2.4,0.3-3.5,0.9c-1.1,0.6-2,1.4-2.7,2.4C561.3,246.4,560.8,247.5,560.6,248.9z"/>
		<path class="st2" d="M585.4,263.8v-25.5h5v3.3c0.8-1.2,1.8-2.1,3-2.8c1.2-0.7,2.5-1,4-1c1,0,1.9,0.1,2.6,0.4v4.5
			c-0.5-0.2-1-0.3-1.5-0.4c-0.5-0.1-1-0.1-1.6-0.1c-1.4,0-2.7,0.4-3.9,1.2c-1.1,0.8-2,1.9-2.7,3.4v17.1H585.4z"/>
		<path class="st2" d="M616,264.2c-2.5,0-4.7-0.6-6.7-1.8c-2-1.2-3.6-2.8-4.8-4.8c-1.2-2-1.8-4.2-1.8-6.7c0-2.5,0.6-4.7,1.8-6.7
			c1.2-2,2.8-3.6,4.8-4.8s4.2-1.8,6.7-1.8c1.9,0,3.7,0.4,5.5,1.1s3.3,1.8,4.6,3.1l-3.1,3.5c-1-1.1-2.1-1.9-3.3-2.4
			c-1.2-0.5-2.5-0.8-3.8-0.8c-1.6,0-3,0.4-4.2,1.2c-1.3,0.8-2.2,1.8-3,3.2c-0.7,1.3-1.1,2.8-1.1,4.5s0.4,3.1,1.1,4.5
			c0.7,1.4,1.7,2.4,3,3.2c1.3,0.8,2.7,1.2,4.3,1.2c1.3,0,2.5-0.3,3.7-0.8c1.1-0.5,2.2-1.3,3.2-2.3l3.1,3.3c-1.3,1.3-2.9,2.4-4.6,3.1
			S617.9,264.2,616,264.2z"/>
		<path class="st2" d="M642.2,264.2c-2.5,0-4.8-0.6-6.8-1.7c-2-1.2-3.6-2.7-4.8-4.8c-1.2-2-1.8-4.3-1.8-6.7s0.6-4.7,1.7-6.7
			c1.2-2,2.7-3.5,4.6-4.7c1.9-1.2,4.1-1.8,6.5-1.8c2.3,0,4.4,0.6,6.3,1.8c1.9,1.2,3.3,2.8,4.4,4.8c1.1,2,1.6,4.3,1.6,6.8v1.4h-20.1
			c0.2,1.4,0.7,2.7,1.5,3.8c0.8,1.1,1.8,2,3,2.6c1.2,0.7,2.6,1,4,1c1.3,0,2.5-0.2,3.6-0.6c1.1-0.4,2.1-0.9,2.9-1.6l3.2,3.1
			c-1.4,1.1-3,2-4.6,2.5C645.9,263.9,644.1,264.2,642.2,264.2z M633.9,248.9H649c-0.2-1.3-0.7-2.5-1.4-3.5c-0.7-1-1.6-1.8-2.6-2.4
			c-1-0.6-2.2-0.9-3.5-0.9s-2.4,0.3-3.5,0.9c-1.1,0.6-2,1.4-2.7,2.4C634.6,246.4,634.1,247.5,633.9,248.9z"/>
		<path class="st2" d="M669.8,263.8v-35H686c2.3,0,4.3,0.4,6,1.3s3,2.1,4,3.7c1,1.6,1.5,3.4,1.5,5.5c0,2-0.5,3.8-1.5,5.4
			c-1,1.6-2.3,2.8-4,3.7s-3.7,1.4-6,1.4h-10.9v14.1H669.8z M675.1,245.2h10.4c2,0,3.7-0.5,4.9-1.6c1.2-1.1,1.8-2.5,1.8-4.4
			c0-1.8-0.6-3.2-1.8-4.3c-1.2-1.1-2.8-1.6-4.9-1.6h-10.4V245.2z"/>
		<path class="st2" d="M702.2,263.8v-35l5-1v36H702.2z"/>
		<path class="st2" d="M721.2,264.2c-1.9,0-3.5-0.3-4.9-1c-1.4-0.7-2.5-1.6-3.3-2.7c-0.8-1.2-1.2-2.5-1.2-4.1c0-2.4,0.9-4.3,2.8-5.7
			c1.9-1.4,4.4-2.1,7.5-2.1c2.5,0,4.8,0.5,6.9,1.4v-2.7c0-1.8-0.5-3.2-1.6-4.1c-1-0.9-2.6-1.4-4.6-1.4c-1.2,0-2.4,0.2-3.6,0.5
			c-1.3,0.4-2.7,0.9-4.2,1.6l-1.9-3.8c1.9-0.9,3.7-1.6,5.4-2c1.7-0.4,3.4-0.6,5.1-0.6c3.3,0,5.9,0.8,7.7,2.4
			c1.8,1.6,2.7,3.8,2.7,6.7v16.9h-5v-2.2c-1.1,0.9-2.3,1.6-3.6,2C724.2,264,722.8,264.2,721.2,264.2z M716.6,256.3
			c0,1.3,0.5,2.3,1.6,3.1c1.1,0.8,2.5,1.2,4.2,1.2c1.3,0,2.6-0.2,3.7-0.6c1.1-0.4,2.1-1,3-1.9v-4.3c-0.9-0.5-1.9-0.9-3-1.2
			c-1.1-0.3-2.2-0.4-3.5-0.4c-1.9,0-3.3,0.4-4.4,1.2C717.1,254.1,716.6,255.1,716.6,256.3z"/>
		<path class="st2" d="M750.7,264.2c-2.4,0-4.3-0.6-5.6-1.7c-1.3-1.1-2-2.8-2-5.1v-15h-5.4v-4.2h5.4v-6.5l5-1.3v7.7h7.6v4.2h-7.6
			v13.9c0,1.3,0.3,2.2,0.9,2.7c0.6,0.6,1.5,0.8,2.9,0.8c0.7,0,1.3,0,1.9-0.1c0.5-0.1,1.1-0.3,1.8-0.5v4.3c-0.7,0.2-1.4,0.4-2.3,0.5
			C752.3,264.2,751.4,264.2,750.7,264.2z"/>
		<path class="st2" d="M763.1,263.8v-21.3h-5.9v-4.2h5.9v-3.8c0-2.7,0.7-4.7,2.2-6.1c1.5-1.4,3.6-2.1,6.4-2.1c0.7,0,1.4,0,2,0.1
			c0.6,0.1,1.2,0.2,1.7,0.3v4.4c-0.6-0.2-1.1-0.3-1.6-0.3c-0.5-0.1-1-0.1-1.5-0.1c-1.4,0-2.5,0.3-3.2,1c-0.7,0.6-1.1,1.6-1.1,3v3.8
			h7.4v4.2H768v21.3H763.1z"/>
		<path class="st2" d="M791.2,264.3c-2.5,0-4.7-0.6-6.7-1.7c-2-1.2-3.6-2.7-4.8-4.8c-1.2-2-1.8-4.3-1.8-6.7c0-2.5,0.6-4.7,1.8-6.7
			c1.2-2,2.8-3.6,4.8-4.8c2-1.2,4.3-1.8,6.8-1.8c2.5,0,4.7,0.6,6.7,1.8c2,1.2,3.6,2.8,4.8,4.8c1.2,2,1.8,4.2,1.8,6.7
			c0,2.5-0.6,4.7-1.8,6.7c-1.2,2-2.8,3.6-4.8,4.8C795.9,263.7,793.7,264.3,791.2,264.3z M791.2,259.9c1.6,0,3-0.4,4.3-1.2
			c1.3-0.8,2.3-1.8,3-3.2c0.7-1.3,1.1-2.8,1.1-4.5c0-1.6-0.4-3.1-1.1-4.4s-1.7-2.4-3-3.2c-1.3-0.8-2.7-1.2-4.3-1.2
			c-1.5,0-2.9,0.4-4.2,1.2c-1.3,0.8-2.3,1.9-3,3.2c-0.7,1.3-1.1,2.8-1.1,4.4c0,1.7,0.4,3.2,1.1,4.5c0.7,1.3,1.7,2.4,3,3.2
			C788.3,259.5,789.7,259.9,791.2,259.9z"/>
		<path class="st2" d="M809.2,263.8v-25.5h5v3.3c0.8-1.2,1.8-2.1,3-2.8c1.2-0.7,2.5-1,4-1c1,0,1.9,0.1,2.6,0.4v4.5
			c-0.5-0.2-1-0.3-1.5-0.4c-0.5-0.1-1-0.1-1.6-0.1c-1.4,0-2.7,0.4-3.9,1.2c-1.1,0.8-2,1.9-2.7,3.4v17.1H809.2z"/>
		<path class="st2" d="M827.9,263.8v-25.5h5v2.4c1.9-1.9,4.3-2.9,7.2-2.9c1.7,0,3.3,0.4,4.7,1.2c1.4,0.8,2.4,1.8,3.2,3.2
			c1-1.4,2.3-2.5,3.7-3.2c1.5-0.7,3.1-1.1,4.9-1.1c1.9,0,3.6,0.4,5,1.3c1.4,0.8,2.5,2,3.3,3.5c0.8,1.5,1.2,3.2,1.2,5.2v16h-5v-15.2
			c0-2-0.5-3.6-1.6-4.7c-1.1-1.2-2.5-1.7-4.2-1.7c-1.3,0-2.4,0.3-3.4,0.9c-1,0.6-1.9,1.4-2.6,2.6c0.1,0.3,0.1,0.7,0.2,1.1
			s0,0.7,0,1.1v16h-5v-15.2c0-2-0.5-3.6-1.6-4.7c-1.1-1.2-2.5-1.7-4.2-1.7c-1.2,0-2.3,0.3-3.3,0.8c-1,0.5-1.8,1.3-2.5,2.3v18.5
			H827.9z"/>
		<path class="st2" d="M886,263.8v-21.3h-5.9v-4.2h5.9v-3.8c0-2.7,0.7-4.7,2.2-6.1c1.5-1.4,3.6-2.1,6.4-2.1c0.7,0,1.4,0,2,0.1
			c0.6,0.1,1.2,0.2,1.7,0.3v4.4c-0.6-0.2-1.1-0.3-1.6-0.3c-0.5-0.1-1-0.1-1.5-0.1c-1.4,0-2.5,0.3-3.2,1c-0.7,0.6-1.1,1.6-1.1,3v3.8
			h7.4v4.2h-7.4v21.3H886z"/>
		<path class="st2" d="M914.2,264.3c-2.5,0-4.7-0.6-6.7-1.7c-2-1.2-3.6-2.7-4.8-4.8c-1.2-2-1.8-4.3-1.8-6.7c0-2.5,0.6-4.7,1.8-6.7
			c1.2-2,2.8-3.6,4.8-4.8c2-1.2,4.3-1.8,6.8-1.8c2.5,0,4.7,0.6,6.7,1.8c2,1.2,3.6,2.8,4.8,4.8c1.2,2,1.8,4.2,1.8,6.7
			c0,2.5-0.6,4.7-1.8,6.7c-1.2,2-2.8,3.6-4.8,4.8C918.9,263.7,916.7,264.3,914.2,264.3z M914.2,259.9c1.6,0,3-0.4,4.3-1.2
			c1.3-0.8,2.3-1.8,3-3.2c0.7-1.3,1.1-2.8,1.1-4.5c0-1.6-0.4-3.1-1.1-4.4s-1.7-2.4-3-3.2c-1.3-0.8-2.7-1.2-4.3-1.2
			c-1.5,0-2.9,0.4-4.2,1.2c-1.3,0.8-2.3,1.9-3,3.2c-0.7,1.3-1.1,2.8-1.1,4.4c0,1.7,0.4,3.2,1.1,4.5c0.7,1.3,1.7,2.4,3,3.2
			C911.3,259.5,912.7,259.9,914.2,259.9z"/>
		<path class="st2" d="M932.2,263.8v-25.5h5v3.3c0.8-1.2,1.8-2.1,3-2.8c1.2-0.7,2.5-1,4-1c1,0,1.9,0.1,2.6,0.4v4.5
			c-0.5-0.2-1-0.3-1.5-0.4c-0.5-0.1-1-0.1-1.6-0.1c-1.4,0-2.7,0.4-3.9,1.2c-1.1,0.8-2,1.9-2.7,3.4v17.1H932.2z"/>
		<path class="st2" d="M958.4,263.8l14.5-35h6.2l14.4,35h-5.7l-4.1-10.3h-15.7l-4.1,10.3H958.4z M969.6,249.2h12.3l-6.1-15.4
			L969.6,249.2z"/>
		<path class="st2" d="M996.4,263.8v-35l5-1v36H996.4z"/>
		<path class="st2" d="M1007.3,263.8v-35l5-1v36H1007.3z"/>
	</g>
</g>
</svg>
